<svg width="36" height="37" viewBox="0 0 36 37" fill="none" xmlns="http://www.w3.org/2000/svg">
<path id="Focus" d="M18 11.1253C13.8645 11.1253 10.5 14.4875 10.5 18.6201C10.5 22.7528 13.8645 26.1149 18 26.1149C22.1355 26.1149 25.5 22.7528 25.5 18.6201C25.5 14.4875 22.1355 11.1253 18 11.1253ZM18 24.616C14.691 24.616 12 21.9268 12 18.6201C12 15.3134 14.691 12.6243 18 12.6243C21.309 12.6243 24 15.3134 24 18.6201C24 21.9268 21.309 24.616 18 24.616ZM35.25 17.8706H32.9805C32.601 10.2004 26.4255 4.02922 18.75 3.64998V1.38205C18.75 0.968336 18.414 0.632568 18 0.632568C17.586 0.632568 17.25 0.968336 17.25 1.38205V3.64998C9.5745 4.02922 3.399 10.2004 3.0195 17.8706H0.75C0.336 17.8706 0 18.2064 0 18.6201C0 19.0338 0.336 19.3696 0.75 19.3696H3.0195C3.399 27.0398 9.5745 33.211 17.25 33.5902V35.8582C17.25 36.2719 17.586 36.6077 18 36.6077C18.414 36.6077 18.75 36.2719 18.75 35.8582V33.5902C26.4255 33.211 32.601 27.0383 32.9805 19.3696H35.25C35.664 19.3696 36 19.0338 36 18.6201C36 18.2064 35.664 17.8706 35.25 17.8706ZM18 32.1108C10.557 32.1108 4.5 26.0595 4.5 18.6201C4.5 11.1808 10.557 5.12945 18 5.12945C25.443 5.12945 31.5 11.1808 31.5 18.6201C31.5 26.0595 25.443 32.1108 18 32.1108Z" fill="white"/>
</svg>
