<svg width="13" height="14" viewBox="0 0 13 14" fill="none" xmlns="http://www.w3.org/2000/svg">
<g id="free-icon-font-home-3917033 1" clip-path="url(#clip0_143_18)">
<path id="Vector" d="M12.5239 5.41239L8.41534 1.30331C7.90685 0.796305 7.21807 0.511597 6.50001 0.511597C5.78194 0.511597 5.09317 0.796305 4.58467 1.30331L0.476132 5.41239C0.324695 5.56286 0.204632 5.74189 0.122901 5.9391C0.0411706 6.13632 -0.000601467 6.34779 6.54305e-06 6.56127V11.8788C6.54305e-06 12.3098 0.171211 12.7231 0.475958 13.0279C0.780705 13.3326 1.19403 13.5038 1.62501 13.5038H11.375C11.806 13.5038 12.2193 13.3326 12.5241 13.0279C12.8288 12.7231 13 12.3098 13 11.8788V6.56127C13.0006 6.34779 12.9588 6.13632 12.8771 5.9391C12.7954 5.74189 12.6753 5.56286 12.5239 5.41239ZM8.12501 12.4205H4.87501V10.2896C4.87501 9.85858 5.04621 9.44526 5.35096 9.14051C5.65571 8.83577 6.06903 8.66456 6.50001 8.66456C6.93098 8.66456 7.34431 8.83577 7.64906 9.14051C7.9538 9.44526 8.12501 9.85858 8.12501 10.2896V12.4205ZM11.9167 11.8788C11.9167 12.0225 11.8596 12.1602 11.758 12.2618C11.6564 12.3634 11.5187 12.4205 11.375 12.4205H9.20834V10.2896C9.20834 9.57127 8.923 8.88239 8.41509 8.37448C7.90718 7.86657 7.2183 7.58123 6.50001 7.58123C5.78171 7.58123 5.09284 7.86657 4.58493 8.37448C4.07702 8.88239 3.79167 9.57127 3.79167 10.2896V12.4205H1.62501C1.48135 12.4205 1.34357 12.3634 1.24199 12.2618C1.14041 12.1602 1.08334 12.0225 1.08334 11.8788V6.56127C1.08384 6.41772 1.14086 6.28014 1.24205 6.17831L5.35059 2.07085C5.65593 1.76694 6.0692 1.59632 6.50001 1.59632C6.93081 1.59632 7.34409 1.76694 7.64942 2.07085L11.758 6.17994C11.8588 6.28136 11.9157 6.41828 11.9167 6.56127V11.8788Z" fill="#BAB8CE"/>
</g>
<defs>
<clipPath id="clip0_143_18">
<rect width="13" height="13" fill="white" transform="translate(0 0.5)"/>
</clipPath>
</defs>
</svg>
