<svg width="36" height="36" viewBox="0 0 36 36" fill="none" xmlns="http://www.w3.org/2000/svg">
<g id="free-icon-font-route-9239960 1">
<g id="Group 141">
<path id="Vector 52" d="M10 27V24.3137C10 22.1046 11.7909 20.3137 14 20.3137H22C24.2091 20.3137 26 22.1046 26 24.3137V27" stroke="white" stroke-width="1.5" stroke-linecap="round"/>
<circle id="Ellipse 50" cx="18" cy="13" r="4.25" stroke="white" stroke-width="1.5"/>
</g>
<path id="Vector 53" d="M2 9V3C2 2.44772 2.44772 2 3 2H9" stroke="white" stroke-width="1.5" stroke-linecap="round"/>
<path id="Vector 54" d="M27 2L33 2C33.5523 2 34 2.44772 34 3L34 9" stroke="white" stroke-width="1.5" stroke-linecap="round"/>
<path id="Vector 55" d="M34 27L34 33C34 33.5523 33.5523 34 33 34L27 34" stroke="white" stroke-width="1.5" stroke-linecap="round"/>
<path id="Vector 56" d="M9 34L3 34C2.44772 34 2 33.5523 2 33L2 27" stroke="white" stroke-width="1.5" stroke-linecap="round"/>
</g>
</svg>
