<svg width="36" height="37" viewBox="0 0 36 37" fill="none" xmlns="http://www.w3.org/2000/svg">
<g id="Transparency">
<path id="Ellipse 48" d="M23.25 12.8506C23.25 19.0587 18.2137 24.0923 12 24.0923C5.78631 24.0923 0.75 19.0587 0.75 12.8506C0.75 6.64246 5.78631 1.60889 12 1.60889C18.2137 1.60889 23.25 6.64246 23.25 12.8506Z" stroke="white" stroke-width="1.5"/>
<path id="Ellipse 49" d="M35.25 24.8423C35.25 31.0504 30.2137 36.084 24 36.084C17.7863 36.084 12.75 31.0504 12.75 24.8423C12.75 18.6342 17.7863 13.6006 24 13.6006C30.2137 13.6006 35.25 18.6342 35.25 24.8423Z" stroke="white" stroke-width="1.5"/>
<path id="Vector 42" d="M13.3125 19.7832L17.0625 23.5306" stroke="white"/>
<path id="Vector 44" d="M14.8125 17.5349L19.3125 22.0318" stroke="white"/>
<path id="Vector 46" d="M16.6875 15.6611L21.1875 20.158" stroke="white"/>
<path id="Vector 48" d="M18.9375 14.1621L22.6875 17.9095" stroke="white"/>
</g>
</svg>
